<svg xmlns="http://www.w3.org/2000/svg" viewBox="0 0 43 43" shape-rendering="crispEdges" role="img" aria-label="Google Play download QR code"><rect width="43" height="43" fill="#ffffff"/><path fill="#000000" d="M3 3h7v1h-7zM14 3h1v1h-1zM16 3h2v1h-2zM21 3h1v1h-1zM23 3h3v1h-3zM27 3h3v1h-3zM31 3h1v1h-1zM33 3h7v1h-7zM3 4h1v1h-1zM9 4h1v1h-1zM13 4h1v1h-1zM15 4h1v1h-1zM17 4h2v1h-2zM20 4h3v1h-3zM28 4h3v1h-3zM33 4h1v1h-1zM39 4h1v1h-1zM3 5h1v1h-1zM5 5h3v1h-3zM9 5h1v1h-1zM11 5h1v1h-1zM13 5h6v1h-6zM22 5h4v1h-4zM27 5h1v1h-1zM29 5h2v1h-2zM33 5h1v1h-1zM35 5h3v1h-3zM39 5h1v1h-1zM3 6h1v1h-1zM5 6h3v1h-3zM9 6h1v1h-1zM11 6h1v1h-1zM13 6h3v1h-3zM17 6h2v1h-2zM20 6h4v1h-4zM25 6h1v1h-1zM28 6h3v1h-3zM33 6h1v1h-1zM35 6h3v1h-3zM39 6h1v1h-1zM3 7h1v1h-1zM5 7h3v1h-3zM9 7h1v1h-1zM11 7h2v1h-2zM15 7h5v1h-5zM21 7h3v1h-3zM25 7h2v1h-2zM31 7h1v1h-1zM33 7h1v1h-1zM35 7h3v1h-3zM39 7h1v1h-1zM3 8h1v1h-1zM9 8h1v1h-1zM11 8h2v1h-2zM14 8h1v1h-1zM21 8h1v1h-1zM25 8h1v1h-1zM28 8h1v1h-1zM30 8h2v1h-2zM33 8h1v1h-1zM39 8h1v1h-1zM3 9h7v1h-7zM11 9h1v1h-1zM13 9h1v1h-1zM15 9h1v1h-1zM17 9h1v1h-1zM19 9h1v1h-1zM21 9h1v1h-1zM23 9h1v1h-1zM25 9h1v1h-1zM27 9h1v1h-1zM29 9h1v1h-1zM31 9h1v1h-1zM33 9h7v1h-7zM11 10h3v1h-3zM17 10h3v1h-3zM26 10h1v1h-1zM29 10h1v1h-1zM31 10h1v1h-1zM3 11h1v1h-1zM5 11h5v1h-5zM13 11h6v1h-6zM21 11h1v1h-1zM23 11h7v1h-7zM31 11h1v1h-1zM33 11h5v1h-5zM3 12h6v1h-6zM10 12h1v1h-1zM14 12h7v1h-7zM24 12h1v1h-1zM31 12h1v1h-1zM34 12h1v1h-1zM38 12h1v1h-1zM4 13h1v1h-1zM6 13h6v1h-6zM14 13h4v1h-4zM20 13h1v1h-1zM23 13h8v1h-8zM33 13h2v1h-2zM36 13h1v1h-1zM38 13h2v1h-2zM5 14h1v1h-1zM7 14h2v1h-2zM10 14h2v1h-2zM13 14h1v1h-1zM19 14h1v1h-1zM24 14h1v1h-1zM26 14h1v1h-1zM29 14h2v1h-2zM33 14h1v1h-1zM36 14h1v1h-1zM39 14h1v1h-1zM4 15h1v1h-1zM6 15h1v1h-1zM9 15h1v1h-1zM14 15h1v1h-1zM17 15h1v1h-1zM19 15h2v1h-2zM23 15h1v1h-1zM25 15h6v1h-6zM32 15h4v1h-4zM37 15h3v1h-3zM3 16h6v1h-6zM13 16h2v1h-2zM19 16h6v1h-6zM26 16h3v1h-3zM31 16h1v1h-1zM34 16h1v1h-1zM3 17h1v1h-1zM5 17h1v1h-1zM7 17h1v1h-1zM9 17h1v1h-1zM11 17h2v1h-2zM14 17h3v1h-3zM18 17h1v1h-1zM20 17h1v1h-1zM24 17h1v1h-1zM30 17h3v1h-3zM34 17h3v1h-3zM38 17h2v1h-2zM4 18h2v1h-2zM10 18h3v1h-3zM14 18h1v1h-1zM17 18h5v1h-5zM24 18h2v1h-2zM31 18h1v1h-1zM34 18h2v1h-2zM38 18h2v1h-2zM3 19h2v1h-2zM6 19h1v1h-1zM9 19h2v1h-2zM13 19h1v1h-1zM19 19h1v1h-1zM24 19h1v1h-1zM26 19h8v1h-8zM35 19h1v1h-1zM37 19h1v1h-1zM3 20h2v1h-2zM7 20h1v1h-1zM11 20h6v1h-6zM18 20h1v1h-1zM21 20h1v1h-1zM23 20h1v1h-1zM25 20h1v1h-1zM27 20h2v1h-2zM31 20h1v1h-1zM34 20h1v1h-1zM37 20h2v1h-2zM4 21h1v1h-1zM6 21h1v1h-1zM9 21h2v1h-2zM12 21h5v1h-5zM18 21h2v1h-2zM22 21h1v1h-1zM25 21h1v1h-1zM27 21h1v1h-1zM29 21h4v1h-4zM35 21h1v1h-1zM38 21h2v1h-2zM5 22h1v1h-1zM7 22h2v1h-2zM10 22h1v1h-1zM12 22h2v1h-2zM15 22h1v1h-1zM17 22h2v1h-2zM21 22h5v1h-5zM27 22h1v1h-1zM30 22h1v1h-1zM33 22h3v1h-3zM39 22h1v1h-1zM3 23h1v1h-1zM5 23h1v1h-1zM8 23h2v1h-2zM14 23h2v1h-2zM18 23h1v1h-1zM20 23h1v1h-1zM22 23h2v1h-2zM25 23h1v1h-1zM27 23h4v1h-4zM32 23h2v1h-2zM35 23h3v1h-3zM3 24h1v1h-1zM7 24h1v1h-1zM10 24h4v1h-4zM16 24h1v1h-1zM19 24h1v1h-1zM21 24h3v1h-3zM25 24h2v1h-2zM28 24h1v1h-1zM31 24h1v1h-1zM36 24h1v1h-1zM6 25h1v1h-1zM8 25h2v1h-2zM12 25h4v1h-4zM17 25h3v1h-3zM21 25h1v1h-1zM23 25h1v1h-1zM25 25h1v1h-1zM30 25h1v1h-1zM32 25h5v1h-5zM38 25h2v1h-2zM3 26h1v1h-1zM7 26h2v1h-2zM11 26h2v1h-2zM15 26h1v1h-1zM18 26h1v1h-1zM26 26h1v1h-1zM29 26h1v1h-1zM31 26h2v1h-2zM34 26h2v1h-2zM38 26h1v1h-1zM3 27h1v1h-1zM5 27h1v1h-1zM7 27h1v1h-1zM9 27h2v1h-2zM13 27h4v1h-4zM21 27h1v1h-1zM23 27h7v1h-7zM32 27h2v1h-2zM35 27h1v1h-1zM37 27h2v1h-2zM3 28h1v1h-1zM6 28h1v1h-1zM10 28h3v1h-3zM16 28h4v1h-4zM24 28h1v1h-1zM27 28h1v1h-1zM31 28h2v1h-2zM36 28h1v1h-1zM3 29h1v1h-1zM7 29h5v1h-5zM15 29h2v1h-2zM23 29h1v1h-1zM27 29h1v1h-1zM29 29h2v1h-2zM33 29h2v1h-2zM37 29h3v1h-3zM3 30h1v1h-1zM5 30h2v1h-2zM10 30h2v1h-2zM19 30h1v1h-1zM24 30h1v1h-1zM29 30h1v1h-1zM31 30h5v1h-5zM39 30h1v1h-1zM3 31h1v1h-1zM5 31h1v1h-1zM7 31h4v1h-4zM15 31h1v1h-1zM17 31h1v1h-1zM20 31h1v1h-1zM25 31h1v1h-1zM27 31h2v1h-2zM31 31h7v1h-7zM39 31h1v1h-1zM11 32h1v1h-1zM14 32h1v1h-1zM16 32h2v1h-2zM19 32h2v1h-2zM22 32h3v1h-3zM26 32h1v1h-1zM30 32h2v1h-2zM35 32h2v1h-2zM38 32h1v1h-1zM3 33h7v1h-7zM13 33h2v1h-2zM18 33h3v1h-3zM23 33h2v1h-2zM29 33h1v1h-1zM31 33h1v1h-1zM33 33h1v1h-1zM35 33h1v1h-1zM37 33h1v1h-1zM39 33h1v1h-1zM3 34h1v1h-1zM9 34h1v1h-1zM11 34h3v1h-3zM15 34h1v1h-1zM17 34h2v1h-2zM20 34h8v1h-8zM29 34h3v1h-3zM35 34h2v1h-2zM38 34h1v1h-1zM3 35h1v1h-1zM5 35h3v1h-3zM9 35h1v1h-1zM11 35h1v1h-1zM16 35h1v1h-1zM18 35h2v1h-2zM22 35h1v1h-1zM24 35h1v1h-1zM27 35h9v1h-9zM37 35h1v1h-1zM39 35h1v1h-1zM3 36h1v1h-1zM5 36h3v1h-3zM9 36h1v1h-1zM11 36h1v1h-1zM13 36h4v1h-4zM18 36h1v1h-1zM21 36h1v1h-1zM23 36h4v1h-4zM28 36h1v1h-1zM32 36h2v1h-2zM35 36h1v1h-1zM37 36h1v1h-1zM39 36h1v1h-1zM3 37h1v1h-1zM5 37h3v1h-3zM9 37h1v1h-1zM11 37h2v1h-2zM14 37h1v1h-1zM17 37h3v1h-3zM22 37h1v1h-1zM24 37h2v1h-2zM27 37h6v1h-6zM37 37h3v1h-3zM3 38h1v1h-1zM9 38h1v1h-1zM13 38h4v1h-4zM18 38h1v1h-1zM21 38h5v1h-5zM30 38h2v1h-2zM33 38h1v1h-1zM35 38h1v1h-1zM39 38h1v1h-1zM3 39h7v1h-7zM11 39h3v1h-3zM15 39h1v1h-1zM17 39h2v1h-2zM20 39h1v1h-1zM22 39h1v1h-1zM26 39h5v1h-5zM32 39h1v1h-1zM35 39h5v1h-5z"/></svg>